<svg width="24" height="24" viewBox="0 0 24 24" fill="none" xmlns="http://www.w3.org/2000/svg">
<path d="M11.9993 13.0012C13.6561 13.0012 14.9993 11.6581 14.9993 10.0012C14.9993 8.34437 13.6561 7.00122 11.9993 7.00122C10.3424 7.00122 8.99927 8.34437 8.99927 10.0012C8.99927 11.6581 10.3424 13.0012 11.9993 13.0012Z" stroke="white" stroke-width="2" stroke-linecap="round" stroke-linejoin="round"/>
<path d="M11.9993 2.00098C9.87754 2.00098 7.8427 2.84383 6.34241 4.34412C4.84212 5.84441 3.99927 7.87924 3.99927 10.001C3.99927 11.893 4.40127 13.131 5.49927 14.501L11.9993 22.001L18.4993 14.501C19.5973 13.131 19.9993 11.893 19.9993 10.001C19.9993 7.87924 19.1564 5.84441 17.6561 4.34412C16.1558 2.84383 14.121 2.00098 11.9993 2.00098Z" stroke="white" stroke-width="2" stroke-linecap="round" stroke-linejoin="round"/>
</svg>
