<svg width="40" height="40" viewBox="0 0 40 40" fill="none" xmlns="http://www.w3.org/2000/svg">
<circle cx="20" cy="20" r="19.5" fill="#34C5F3" stroke="#47494B"/>
<g clip-path="url(#clip0_8023_14)">
<path d="M21.6662 20.8336C20.9718 20.8336 20.3815 20.5906 19.8954 20.1045C19.4093 19.6183 19.1662 19.0281 19.1662 18.3336C19.1662 17.6392 19.4093 17.0489 19.8954 16.5628C20.3815 16.0767 20.9718 15.8336 21.6662 15.8336C22.3607 15.8336 22.9509 16.0767 23.4371 16.5628C23.9232 17.0489 24.1662 17.6392 24.1662 18.3336C24.1662 19.0281 23.9232 19.6183 23.4371 20.1045C22.9509 20.5906 22.3607 20.8336 21.6662 20.8336ZM15.8329 23.3336C15.3746 23.3336 14.9822 23.1704 14.6558 22.844C14.3294 22.5176 14.1662 22.1253 14.1662 21.667V15.0003C14.1662 14.542 14.3294 14.1496 14.6558 13.8232C14.9822 13.4968 15.3746 13.3336 15.8329 13.3336H27.4996C27.9579 13.3336 28.3502 13.4968 28.6766 13.8232C29.003 14.1496 29.1662 14.542 29.1662 15.0003V21.667C29.1662 22.1253 29.003 22.5176 28.6766 22.844C28.3502 23.1704 27.9579 23.3336 27.4996 23.3336H15.8329ZM17.4996 21.667H25.8329C25.8329 21.2086 25.9961 20.8163 26.3225 20.4899C26.6489 20.1635 27.0412 20.0003 27.4996 20.0003V16.667C27.0412 16.667 26.6489 16.5038 26.3225 16.1774C25.9961 15.851 25.8329 15.4586 25.8329 15.0003H17.4996C17.4996 15.4586 17.3364 15.851 17.01 16.1774C16.6836 16.5038 16.2912 16.667 15.8329 16.667V20.0003C16.2912 20.0003 16.6836 20.1635 17.01 20.4899C17.3364 20.8163 17.4996 21.2086 17.4996 21.667ZM26.6662 26.667H12.4996C12.0412 26.667 11.6489 26.5038 11.3225 26.1774C10.9961 25.851 10.8329 25.4586 10.8329 25.0003V15.8336H12.4996V25.0003H26.6662V26.667Z" fill="white"/>
</g>
<defs>
<clipPath id="clip0_8023_14">
<rect width="20" height="20" fill="white" transform="translate(10 9.99963)"/>
</clipPath>
</defs>
</svg>
