<svg width="40" height="41" viewBox="0 0 40 41" fill="none" xmlns="http://www.w3.org/2000/svg">
<circle cx="20" cy="20.5" r="19.5" fill="#34C5F3" stroke="#47494B"/>
<path d="M23.2994 25.1993L24.6994 23.7993L20.9994 20.0993V15.4993H18.9994V20.8993L23.2994 25.1993ZM19.9994 30.4993C18.6161 30.4993 17.3161 30.2368 16.0994 29.7118C14.8827 29.1868 13.8244 28.4743 12.9244 27.5743C12.0244 26.6743 11.3119 25.6159 10.7869 24.3993C10.2619 23.1826 9.99939 21.8826 9.99939 20.4993C9.99939 19.1159 10.2619 17.8159 10.7869 16.5993C11.3119 15.3826 12.0244 14.3243 12.9244 13.4243C13.8244 12.5243 14.8827 11.8118 16.0994 11.2868C17.3161 10.7618 18.6161 10.4993 19.9994 10.4993C21.3827 10.4993 22.6827 10.7618 23.8994 11.2868C25.1161 11.8118 26.1744 12.5243 27.0744 13.4243C27.9744 14.3243 28.6869 15.3826 29.2119 16.5993C29.7369 17.8159 29.9994 19.1159 29.9994 20.4993C29.9994 21.8826 29.7369 23.1826 29.2119 24.3993C28.6869 25.6159 27.9744 26.6743 27.0744 27.5743C26.1744 28.4743 25.1161 29.1868 23.8994 29.7118C22.6827 30.2368 21.3827 30.4993 19.9994 30.4993ZM19.9994 28.4993C22.2161 28.4993 24.1036 27.7201 25.6619 26.1618C27.2202 24.6034 27.9994 22.7159 27.9994 20.4993C27.9994 18.2826 27.2202 16.3951 25.6619 14.8368C24.1036 13.2784 22.2161 12.4993 19.9994 12.4993C17.7827 12.4993 15.8952 13.2784 14.3369 14.8368C12.7786 16.3951 11.9994 18.2826 11.9994 20.4993C11.9994 22.7159 12.7786 24.6034 14.3369 26.1618C15.8952 27.7201 17.7827 28.4993 19.9994 28.4993Z" fill="white"/>
</svg>
