<svg width="24" height="25" viewBox="0 0 24 25" fill="none" xmlns="http://www.w3.org/2000/svg">
<path d="M19.0209 5.07459C17.6319 3.68619 15.8624 2.74085 13.9361 2.35812C12.0098 1.97538 10.0133 2.17245 8.19899 2.92439C6.3847 3.67633 4.83413 4.94937 3.74335 6.58254C2.65256 8.21571 2.07056 10.1357 2.07092 12.0996C2.07092 14.7336 3.11696 17.2599 4.97905 19.1229C6.84114 20.986 9.36686 22.0333 12.0009 22.0346C13.3044 22.0351 14.5954 21.7803 15.8009 21.2846C17.0026 20.7773 18.0957 20.0441 19.0209 19.1246C19.9436 18.2021 20.6754 17.1069 21.1748 15.9016C21.6741 14.6962 21.9311 13.4043 21.9311 12.0996C21.9311 10.7949 21.6741 9.50298 21.1748 8.29762C20.6754 7.09226 19.9436 5.99707 19.0209 5.07459ZM18.3209 18.4146C16.891 19.8507 15.0147 20.7571 13.0009 20.9846V14.4246H14.8809C15.1461 14.4246 15.4005 14.3192 15.588 14.1317C15.7756 13.9442 15.8809 13.6898 15.8809 13.4246C15.8809 13.1594 15.7756 12.905 15.588 12.7175C15.4005 12.5299 15.1461 12.4246 14.8809 12.4246H13.0009V9.68459C13.0009 9.41937 13.1063 9.16502 13.2938 8.97748C13.4814 8.78995 13.7357 8.68459 14.0009 8.68459H15.2009C15.4661 8.68459 15.7205 8.57923 15.908 8.3917C16.0956 8.20416 16.2009 7.94981 16.2009 7.68459C16.2009 7.41937 16.0956 7.16502 15.908 6.97748C15.7205 6.78995 15.4661 6.68459 15.2009 6.68459H13.5009C12.8379 6.68459 12.202 6.94798 11.7332 7.41682C11.2643 7.88566 11.0009 8.52155 11.0009 9.18459V12.4246H9.13092C8.86571 12.4246 8.61135 12.5299 8.42382 12.7175C8.23628 12.905 8.13092 13.1594 8.13092 13.4246C8.13092 13.6898 8.23628 13.9442 8.42382 14.1317C8.61135 14.3192 8.86571 14.4246 9.13092 14.4246H11.0009V20.9846C9.14381 20.7727 7.4002 19.9827 6.01637 18.7263C4.63254 17.4698 3.67844 15.8103 3.28882 13.9822C2.89921 12.1541 3.09378 10.2498 3.84505 8.53825C4.59633 6.82672 5.86633 5.39447 7.47567 4.44381C9.08502 3.49315 10.9524 3.07213 12.8139 3.24021C14.6755 3.40829 16.4373 4.15698 17.8503 5.38053C19.2633 6.60408 20.2562 8.24065 20.6888 10.0591C21.1214 11.8775 20.9717 13.7858 20.2609 15.5146C19.8082 16.5978 19.1494 17.5827 18.3209 18.4146Z" fill="#DADADA"/>
</svg>
