<svg width="40" height="41" viewBox="0 0 40 41" fill="none" xmlns="http://www.w3.org/2000/svg">
<circle cx="20" cy="20.5" r="19.5" fill="#34C5F3" stroke="#47494B"/>
<path d="M28.6506 17.8745L27.2506 16.4745L28.0006 15.6995L24.8006 12.4995L24.0256 13.2495L22.6006 11.8245L23.3506 11.0495C23.734 10.6661 24.209 10.4786 24.7756 10.487C25.3423 10.4953 25.8173 10.6911 26.2006 11.0745L29.4256 14.2995C29.809 14.6828 30.0006 15.1536 30.0006 15.712C30.0006 16.2703 29.809 16.7411 29.4256 17.1245L28.6506 17.8745ZM16.6506 29.8995C16.2673 30.2828 15.7965 30.4745 15.2381 30.4745C14.6798 30.4745 14.209 30.2828 13.8256 29.8995L10.6006 26.6745C10.2173 26.2911 10.0256 25.8203 10.0256 25.262C10.0256 24.7036 10.2173 24.2328 10.6006 23.8495L11.3506 23.0995L12.7756 24.5245L12.0006 25.2745L15.2256 28.4995L15.9756 27.7245L17.4006 29.1495L16.6506 29.8995ZM26.5756 21.4995L28.0006 20.0745L20.4256 12.4995L19.0006 13.9245L26.5756 21.4995ZM19.5756 28.4995L21.0006 27.0495L13.4506 19.4995L12.0006 20.9245L19.5756 28.4995ZM19.4256 22.6495L22.1756 19.9245L20.5756 18.3245L17.8506 21.0745L19.4256 22.6495ZM21.0006 29.8995C20.6173 30.2828 20.1423 30.4745 19.5756 30.4745C19.009 30.4745 18.534 30.2828 18.1506 29.8995L10.6006 22.3495C10.2173 21.9661 10.0256 21.4911 10.0256 20.9245C10.0256 20.3578 10.2173 19.8828 10.6006 19.4995L12.0256 18.0745C12.409 17.6911 12.8798 17.4995 13.4381 17.4995C13.9965 17.4995 14.4673 17.6911 14.8506 18.0745L16.4256 19.6495L19.1756 16.8995L17.6006 15.3495C17.2173 14.9661 17.0256 14.4911 17.0256 13.9245C17.0256 13.3578 17.2173 12.8828 17.6006 12.4995L19.0256 11.0745C19.409 10.6911 19.8798 10.4995 20.4381 10.4995C20.9965 10.4995 21.4673 10.6911 21.8506 11.0745L29.4256 18.6495C29.809 19.0328 30.0006 19.5036 30.0006 20.062C30.0006 20.6203 29.809 21.0911 29.4256 21.4745L28.0006 22.8995C27.6173 23.2828 27.1423 23.4745 26.5756 23.4745C26.009 23.4745 25.534 23.2828 25.1506 22.8995L23.6006 21.3245L20.8506 24.0745L22.4256 25.6495C22.809 26.0328 23.0006 26.5036 23.0006 27.062C23.0006 27.6203 22.809 28.0911 22.4256 28.4745L21.0006 29.8995Z" fill="white"/>
</svg>
