<svg width="40" height="41" viewBox="0 0 40 41" fill="none" xmlns="http://www.w3.org/2000/svg">
<circle cx="20" cy="20.5" r="19.5" fill="#34C5F3" stroke="#47494B"/>
<path d="M21.3999 30.3989L19.9999 28.9989L23.5499 25.4489L15.0499 16.9489L11.4999 20.4989L10.0999 19.0989L11.4999 17.6489L10.0999 16.2489L12.1999 14.1489L10.7999 12.6989L12.1999 11.2989L13.6499 12.6989L15.7499 10.5989L17.1499 11.9989L18.5999 10.5989L19.9999 11.9989L16.4499 15.5489L24.9499 24.0489L28.4999 20.4989L29.8999 21.8989L28.4999 23.3489L29.8999 24.7489L27.7999 26.8489L29.1999 28.2989L27.7999 29.6989L26.3499 28.2989L24.2499 30.3989L22.8499 28.9989L21.3999 30.3989Z" fill="white"/>
</svg>
