<svg width="18" height="18" viewBox="0 0 18 18" fill="none" xmlns="http://www.w3.org/2000/svg">
<path d="M9.00004 1.44644C10.6624 1.44644 12.2566 2.1068 13.4321 3.28226C14.6075 4.45771 15.2679 6.05196 15.2679 7.7143C15.2679 10.3629 13.4068 14.3743 9.7329 17.5294C9.52861 17.7049 9.26815 17.8013 8.99884 17.8011C8.72952 17.8008 8.46923 17.704 8.26525 17.5282L8.02225 17.3173C4.51096 14.2444 2.73218 10.3037 2.73218 7.7143C2.73218 6.05196 3.39254 4.45771 4.56799 3.28226C5.74344 2.1068 7.3377 1.44644 9.00004 1.44644ZM9.00004 5.30359C8.36068 5.30359 7.7475 5.55757 7.2954 6.00967C6.84331 6.46176 6.58932 7.07494 6.58932 7.7143C6.58932 8.35366 6.84331 8.96684 7.2954 9.41893C7.7475 9.87103 8.36068 10.125 9.00004 10.125C9.6394 10.125 10.2526 9.87103 10.7047 9.41893C11.1568 8.96684 11.4108 8.35366 11.4108 7.7143C11.4108 7.07494 11.1568 6.46176 10.7047 6.00967C10.2526 5.55757 9.6394 5.30359 9.00004 5.30359Z" fill="#88898A"/>
</svg>
