<svg width="24" height="25" viewBox="0 0 24 25" fill="none" xmlns="http://www.w3.org/2000/svg">
<path d="M7.79988 2.09961H16.1999C19.3999 2.09961 21.9999 4.69961 21.9999 7.89961V16.2996C21.9999 17.8379 21.3888 19.3131 20.3011 20.4008C19.2134 21.4885 17.7381 22.0996 16.1999 22.0996H7.79988C4.59988 22.0996 1.99988 19.4996 1.99988 16.2996V7.89961C1.99988 6.36135 2.61095 4.8861 3.69866 3.79839C4.78637 2.71068 6.26162 2.09961 7.79988 2.09961ZM7.59988 4.09961C6.6451 4.09961 5.72942 4.47889 5.05429 5.15402C4.37916 5.82916 3.99988 6.74483 3.99988 7.69961V16.4996C3.99988 18.4896 5.60988 20.0996 7.59988 20.0996H16.3999C17.3547 20.0996 18.2703 19.7203 18.9455 19.0452C19.6206 18.3701 19.9999 17.4544 19.9999 16.4996V7.69961C19.9999 5.70961 18.3899 4.09961 16.3999 4.09961H7.59988ZM17.2499 5.59961C17.5814 5.59961 17.8993 5.7313 18.1338 5.96573C18.3682 6.20015 18.4999 6.51809 18.4999 6.84961C18.4999 7.18113 18.3682 7.49907 18.1338 7.73349C17.8993 7.96791 17.5814 8.09961 17.2499 8.09961C16.9184 8.09961 16.6004 7.96791 16.366 7.73349C16.1316 7.49907 15.9999 7.18113 15.9999 6.84961C15.9999 6.51809 16.1316 6.20015 16.366 5.96573C16.6004 5.7313 16.9184 5.59961 17.2499 5.59961ZM11.9999 7.09961C13.326 7.09961 14.5977 7.62639 15.5354 8.56407C16.4731 9.50176 16.9999 10.7735 16.9999 12.0996C16.9999 13.4257 16.4731 14.6975 15.5354 15.6351C14.5977 16.5728 13.326 17.0996 11.9999 17.0996C10.6738 17.0996 9.40203 16.5728 8.46434 15.6351C7.52666 14.6975 6.99988 13.4257 6.99988 12.0996C6.99988 10.7735 7.52666 9.50176 8.46434 8.56407C9.40203 7.62639 10.6738 7.09961 11.9999 7.09961ZM11.9999 9.09961C11.2042 9.09961 10.4412 9.41568 9.87856 9.97829C9.31595 10.5409 8.99988 11.304 8.99988 12.0996C8.99988 12.8953 9.31595 13.6583 9.87856 14.2209C10.4412 14.7835 11.2042 15.0996 11.9999 15.0996C12.7955 15.0996 13.5586 14.7835 14.1212 14.2209C14.6838 13.6583 14.9999 12.8953 14.9999 12.0996C14.9999 11.304 14.6838 10.5409 14.1212 9.97829C13.5586 9.41568 12.7955 9.09961 11.9999 9.09961Z" fill="#DADADA"/>
</svg>
