<svg width="24" height="25" viewBox="0 0 24 25" fill="none" xmlns="http://www.w3.org/2000/svg">
<path d="M18.3282 23.0001C17.4132 23.0001 16.1278 22.6691 14.2032 21.5938C11.8627 20.2813 10.0524 19.0696 7.72457 16.7479C5.48019 14.5049 4.388 13.0527 2.85941 10.2711C1.13254 7.13052 1.42691 5.48427 1.75597 4.78068C2.14785 3.93974 2.72629 3.43677 3.47394 2.93755C3.89861 2.65932 4.34801 2.42081 4.81644 2.22505C4.86332 2.2049 4.90691 2.18568 4.94582 2.16833C5.17785 2.0638 5.52941 1.90583 5.97472 2.07458C6.27191 2.18615 6.53722 2.41443 6.95254 2.82458C7.80425 3.66458 8.96816 5.53537 9.39754 6.45412C9.68582 7.07333 9.8766 7.48208 9.87707 7.94052C9.87707 8.47724 9.60707 8.89115 9.27941 9.33787C9.218 9.42177 9.15707 9.50193 9.098 9.57974C8.74129 10.0485 8.663 10.184 8.71457 10.4258C8.8191 10.9119 9.59863 12.359 10.8797 13.6372C12.1608 14.9155 13.5661 15.6458 14.0541 15.7499C14.3063 15.8038 14.4446 15.7222 14.9283 15.3529C14.9977 15.2999 15.0689 15.2451 15.1435 15.1902C15.6432 14.8185 16.0378 14.5555 16.5619 14.5555H16.5647C17.0208 14.5555 17.4113 14.7533 18.0582 15.0796C18.9019 15.5052 20.8289 16.6541 21.6741 17.5068C22.0852 17.9211 22.3144 18.1855 22.4264 18.4822C22.5952 18.929 22.4363 19.2791 22.3327 19.5135C22.3153 19.5524 22.2961 19.5951 22.276 19.6424C22.0787 20.11 21.8387 20.5585 21.5593 20.9821C21.061 21.7274 20.5561 22.3044 19.7133 22.6968C19.2805 22.9015 18.8069 23.0052 18.3282 23.0001Z" fill="white"/>
</svg>
