<svg width="4135" height="824" viewBox="0 0 4135 824" fill="none" xmlns="http://www.w3.org/2000/svg">
<path d="M4135 0L3951.56 538.279H3842.84L3913.05 824H3605.05L3530.3 538.279H3316.28L3218.89 824H2912L3150.94 122.452L3062.61 0H4135ZM3429.52 205.361L3385.36 334.191H3713.75L3757.92 205.361H3429.52Z" fill="#34C5F3"/>
<path d="M2487.99 205.361L2452.45 309.956H3046.37L2975.28 514.042H2381.36L2344.67 619.912H2938.59L2868.65 824H1964L2205.93 122.452L2116.49 0H3153L3081.91 205.361H2487.99Z" fill="#34C5F3"/>
<path d="M1522.98 205.361L1487.44 309.956H2081.37L2010.28 514.042H1416.35L1379.66 619.912H1973.59L1903.64 824H999L1240.93 122.452L1151.49 0H2188L2116.91 205.361H1522.98Z" fill="#34C5F3"/>
<path d="M238.937 122.452L283.66 0H575.262L787.022 377.56L916.118 0H1223L942.162 824H647.736L434.844 447.715L306.882 824H0L238.937 122.452Z" fill="#34C5F3"/>
</svg>
