<svg width="24" height="24" viewBox="0 0 24 24" fill="none" xmlns="http://www.w3.org/2000/svg">
<path d="M19.9493 20.9993C17.8659 20.9993 15.8076 20.5453 13.7743 19.6373C11.7409 18.7293 9.89093 17.4416 8.22427 15.7743C6.5576 14.1076 5.27027 12.2576 4.36227 10.2243C3.45427 8.19093 2.99993 6.1326 2.99927 4.04927C2.99927 3.74927 3.09927 3.49927 3.29927 3.29927C3.49927 3.09927 3.74927 2.99927 4.04927 2.99927H8.09927C8.3326 2.99927 8.54093 3.0786 8.72427 3.23727C8.9076 3.39593 9.01593 3.58327 9.04927 3.79927L9.69927 7.29927C9.7326 7.56593 9.72427 7.79093 9.67427 7.97427C9.62427 8.1576 9.5326 8.31593 9.39927 8.44927L6.97427 10.8993C7.3076 11.5159 7.70327 12.1116 8.16127 12.6863C8.61927 13.2609 9.1236 13.8153 9.67427 14.3493C10.1909 14.8659 10.7326 15.3453 11.2993 15.7873C11.8659 16.2293 12.4659 16.6333 13.0993 16.9993L15.4493 14.6493C15.5993 14.4993 15.7953 14.3869 16.0373 14.3123C16.2793 14.2376 16.5166 14.2166 16.7493 14.2493L20.1993 14.9493C20.4326 15.0159 20.6243 15.1369 20.7743 15.3123C20.9243 15.4876 20.9993 15.6833 20.9993 15.8993V19.9493C20.9993 20.2493 20.8993 20.4993 20.6993 20.6993C20.4993 20.8993 20.2493 20.9993 19.9493 20.9993ZM6.02427 8.99927L7.67427 7.34927L7.24927 4.99927H5.02427C5.1076 5.6826 5.22427 6.3576 5.37427 7.02427C5.52427 7.69093 5.74093 8.34927 6.02427 8.99927ZM14.9743 17.9493C15.6243 18.2326 16.2869 18.4576 16.9623 18.6243C17.6376 18.7909 18.3166 18.8993 18.9993 18.9493V16.7493L16.6493 16.2743L14.9743 17.9493Z" fill="white"/>
</svg>
