<svg width="23" height="24" viewBox="0 0 23 24" fill="none" xmlns="http://www.w3.org/2000/svg">
<g clip-path="url(#clip0_4100_200)">
<path d="M9.10608 15.7457V8.87636C9.10622 8.79042 9.12948 8.70609 9.17341 8.63222C9.21735 8.55835 9.28034 8.49766 9.3558 8.4565C9.43125 8.41535 9.51638 8.39524 9.60227 8.3983C9.68817 8.40135 9.77166 8.42745 9.844 8.47386L15.1877 11.9076C15.2553 11.9509 15.311 12.0106 15.3496 12.0811C15.3881 12.1516 15.4083 12.2307 15.4083 12.311C15.4083 12.3914 15.3881 12.4705 15.3496 12.541C15.311 12.6115 15.2553 12.6711 15.1877 12.7145L9.844 16.1492C9.77166 16.1956 9.68817 16.2217 9.60227 16.2247C9.51638 16.2278 9.43125 16.2077 9.3558 16.1665C9.28034 16.1254 9.21735 16.0647 9.17341 15.9908C9.12948 15.9169 9.10622 15.8326 9.10608 15.7467V15.7457Z" fill="#000200"/>
<path d="M0.957642 12.3108C0.957642 6.48897 5.67743 1.76918 11.4993 1.76918C17.3212 1.76918 22.041 6.48897 22.041 12.3108C22.041 18.1327 17.3212 22.8525 11.4993 22.8525C5.67743 22.8525 0.957642 18.1327 0.957642 12.3108ZM11.4993 3.20668C9.08473 3.20668 6.76905 4.16587 5.06169 5.87323C3.35433 7.58059 2.39514 9.89627 2.39514 12.3108C2.39514 14.7254 3.35433 17.0411 5.06169 18.7485C6.76905 20.4558 9.08473 21.415 11.4993 21.415C13.9139 21.415 16.2296 20.4558 17.9369 18.7485C19.6443 17.0411 20.6035 14.7254 20.6035 12.3108C20.6035 9.89627 19.6443 7.58059 17.9369 5.87323C16.2296 4.16587 13.9139 3.20668 11.4993 3.20668Z" fill="#000200"/>
</g>
<defs>
<clipPath id="clip0_4100_200">
<rect width="23" height="23" fill="white" transform="translate(0.00012207 0.812103)"/>
</clipPath>
</defs>
</svg>
