<svg width="101" height="101" viewBox="0 0 101 101" fill="none" xmlns="http://www.w3.org/2000/svg">
<g clip-path="url(#clip0_4100_183)">
<path d="M52.3987 98.1398C52.1815 96.3603 53.4481 94.7426 55.2394 94.5269C57.0307 94.3112 58.6591 95.5694 58.8763 97.3669C59.0934 99.1464 57.8268 100.764 56.0355 100.98C55.8908 100.998 55.7641 100.998 55.6375 100.998C54.009 100.998 52.5977 99.7935 52.3987 98.1398ZM31.7174 98.0859C30.0346 97.4388 29.1842 95.5694 29.8175 93.8978C30.4508 92.2261 32.3325 91.3813 34.0153 92.0104C35.698 92.6395 36.5484 94.5269 35.9151 96.1985C35.4085 97.4927 34.1781 98.3016 32.8573 98.3016C32.4954 98.2836 32.0973 98.2297 31.7174 98.0859ZM74.3646 91.5251C73.3333 90.0512 73.7132 88.038 75.1969 86.9955C76.6806 85.9709 78.7071 86.3484 79.7385 87.8223C80.7698 89.2962 80.408 91.3094 78.9243 92.352C78.3453 92.7474 77.712 92.9271 77.0606 92.9271C76.0293 92.9092 74.9979 92.4238 74.3646 91.5251ZM11.5608 84.2813C10.3666 82.9332 10.4932 80.8841 11.8322 79.6977C13.1892 78.5114 15.2519 78.6193 16.4461 79.9674C17.6403 81.3155 17.5318 83.3646 16.1747 84.5509C15.5595 85.1081 14.7815 85.3778 14.0035 85.3778C13.0988 85.3778 12.2122 85.0003 11.5608 84.2813ZM90.7396 75.4916C89.1473 74.6468 88.5321 72.6876 89.3644 71.1058C90.1968 69.524 92.169 68.9129 93.7793 69.7397C95.3716 70.5666 95.9868 72.5438 95.1545 74.1256C94.5574 75.24 93.4356 75.8691 92.2595 75.8691C91.7347 75.8691 91.21 75.7433 90.7396 75.4916ZM0.143547 62.7655C-0.272612 61.022 0.794926 59.2605 2.53194 58.8471C4.26895 58.4157 6.04215 59.4762 6.4764 61.2197C6.91066 62.9453 5.84312 64.7068 4.08801 65.1382C3.8347 65.2101 3.56329 65.2281 3.29188 65.2281C1.84437 65.2281 0.505425 64.2395 0.143547 62.7655ZM94.4669 50.5068C94.4669 50.4708 94.4669 50.4349 94.4669 50.4169C94.4669 50.3809 94.4669 50.345 94.4669 50.327C94.4488 48.5296 95.9144 47.0736 97.7238 47.0736C99.5332 47.0556 100.999 48.5116 100.999 50.2911C100.999 50.327 100.999 50.363 100.999 50.3989C100.999 50.4349 100.999 50.4708 100.999 50.4888C100.999 52.2863 99.5332 53.7422 97.7238 53.7422C95.9144 53.7602 94.4669 52.3042 94.4669 50.5068ZM2.49575 42.3642C0.740645 41.9508 -0.326894 40.1893 0.0892655 38.4457C0.505425 36.7022 2.29672 35.6417 4.03373 36.0551C5.78884 36.4685 6.85637 38.248 6.42212 39.9736C6.06024 41.4475 4.7213 42.4541 3.25569 42.4541C3.00238 42.4721 2.76716 42.4361 2.49575 42.3642ZM89.274 29.746C88.4417 28.1642 89.0387 26.2049 90.631 25.3601C92.2233 24.5153 94.1955 25.1265 95.0459 26.7082C95.8963 28.29 95.2811 30.2493 93.6889 31.0941C93.2003 31.3457 92.6756 31.4715 92.169 31.4715C90.9929 31.4895 89.8711 30.8604 89.274 29.746ZM11.7236 21.4776C10.3666 20.2913 10.2399 18.2421 11.4341 16.894C12.6283 15.5459 14.691 15.4201 16.0481 16.6064C17.4051 17.7928 17.5318 19.8419 16.3376 21.19C15.6862 21.909 14.7996 22.2864 13.8768 22.2864C13.1169 22.2864 12.3388 22.0168 11.7236 21.4776ZM75.0522 13.9102C73.5685 12.9036 73.1885 10.8725 74.2018 9.39857C75.2331 7.92464 77.2596 7.54717 78.7433 8.57173C80.227 9.59629 80.6251 11.5915 79.5938 13.0834C78.9605 14.0001 77.9472 14.4854 76.8978 14.4854C76.2645 14.4854 75.6312 14.3057 75.0522 13.9102ZM29.6547 7.20565C29.0033 5.534 29.8537 3.66463 31.5364 3.01754C33.2191 2.38842 35.1009 3.21526 35.7523 4.88691C36.3856 6.55856 35.5533 8.42793 33.8705 9.07502C33.4725 9.21882 33.0925 9.29072 32.6944 9.29072C31.3917 9.29072 30.1613 8.49983 29.6547 7.20565ZM55.0585 6.46869C53.2672 6.27097 51.9825 4.65324 52.1996 2.87374C52.3987 1.09424 54.0452 -0.181962 55.8184 0.0337346C57.6097 0.231457 58.8944 1.84918 58.6772 3.62868C58.4782 5.28236 57.085 6.48666 55.4384 6.48666C55.3299 6.48666 55.2032 6.46869 55.0585 6.46869Z" fill="#34C5F3"/>
<path d="M51.9289 89.4783C51.7479 88.0223 52.7974 86.6922 54.263 86.5304C55.7286 86.3507 57.0675 87.3932 57.2304 88.8492C57.4113 90.3051 56.3619 91.6352 54.8963 91.797C54.7877 91.815 54.6791 91.815 54.5706 91.815C53.2497 91.815 52.0917 90.8443 51.9289 89.4783ZM35.0111 89.4243C33.6359 88.9031 32.9303 87.3752 33.4731 86.0091C33.9797 84.6431 35.5358 83.9421 36.9109 84.4633C38.2861 84.9846 38.9917 86.5124 38.467 87.8785C38.0509 88.957 37.0376 89.6041 35.9701 89.6041C35.6444 89.6041 35.3187 89.5502 35.0111 89.4243ZM69.9142 84.0679C69.0818 82.8636 69.3894 81.2099 70.5836 80.3651C71.7959 79.5382 73.4606 79.8438 74.311 81.0301C75.1433 82.2345 74.8357 83.8881 73.6415 84.7329C73.1711 85.0385 72.6463 85.2003 72.1216 85.2003C71.2531 85.2003 70.4389 84.8048 69.9142 84.0679ZM18.5095 78.1362C17.5324 77.0398 17.6229 75.3681 18.7447 74.3975C19.8484 73.4268 21.5311 73.5167 22.5082 74.6132C23.4853 75.7096 23.3948 77.3813 22.2911 78.3699C21.7845 78.8192 21.1512 79.035 20.5179 79.035C19.776 79.035 19.0523 78.7294 18.5095 78.1362ZM83.3036 70.9643C82.0009 70.2633 81.4762 68.6635 82.1818 67.3694C82.8694 66.0752 84.4797 65.5719 85.7825 66.2549C87.0853 66.938 87.5919 68.5557 86.9043 69.8319C86.4158 70.7486 85.493 71.2519 84.534 71.2519C84.1179 71.2519 83.6836 71.162 83.3036 70.9643ZM9.17303 60.5389C8.81115 59.1189 9.69775 57.681 11.1272 57.3215C12.5566 56.962 14.0041 57.8248 14.366 59.2627C14.7098 60.6828 13.8412 62.1207 12.4118 62.4802C12.1947 62.5341 11.9776 62.5521 11.7605 62.5521C10.5663 62.5521 9.48063 61.7433 9.17303 60.5389ZM86.3434 50.5091C86.3615 50.4911 86.3615 50.4911 86.3615 50.4731C86.3615 50.4372 86.3434 50.4012 86.3434 50.3832C86.3434 48.9093 87.5376 47.723 89.0032 47.705C90.4869 47.705 91.6811 48.8913 91.6811 50.3473C91.6811 50.3832 91.6811 50.4012 91.6811 50.4371C91.6811 50.4551 91.6811 50.4911 91.6811 50.5091C91.6811 51.983 90.4869 53.1693 89.0213 53.1693C87.5376 53.1693 86.3434 51.983 86.3434 50.5091ZM11.1091 43.8584C9.67966 43.5169 8.79306 42.0789 9.15494 40.6409C9.15494 40.6409 9.15494 40.6409 9.13684 40.6409C9.49872 39.2209 10.9281 38.3402 12.3756 38.6997C13.8051 39.0412 14.6917 40.4792 14.3479 41.9171C14.0403 43.1214 12.9546 43.9303 11.7424 43.9303C11.5252 43.9303 11.3081 43.9123 11.1091 43.8584ZM82.1094 33.5229C81.4219 32.2288 81.9104 30.629 83.2132 29.928C84.5159 29.2449 86.1263 29.7303 86.8319 31.0244C87.5376 32.3186 87.031 33.9364 85.7282 34.6194C85.3301 34.8171 84.8959 34.925 84.4797 34.925C83.5208 34.9429 82.598 34.4217 82.1094 33.5229ZM18.6542 26.7465C17.5505 25.7758 17.4419 24.1042 18.419 23.0077C19.3961 21.9113 21.0788 21.8034 22.1825 22.774C23.2863 23.7447 23.3948 25.4163 22.4177 26.5308C21.8749 27.1239 21.1512 27.4295 20.4093 27.4295C19.7941 27.4115 19.1608 27.1958 18.6542 26.7465ZM70.457 20.5811C69.2447 19.7543 68.9371 18.1006 69.7694 16.8783C70.6017 15.674 72.2664 15.3685 73.4787 16.1953C74.6909 17.0221 74.9985 18.6758 74.1843 19.8801C73.6596 20.6351 72.8273 21.0305 71.9769 21.0305C71.4521 21.0485 70.9274 20.9047 70.457 20.5811ZM33.3284 15.0809C32.8036 13.7148 33.4912 12.1869 34.8663 11.6477C36.2415 11.1264 37.7975 11.8095 38.3223 13.1755C38.8651 14.5416 38.1594 16.0695 36.7843 16.6087C36.4767 16.7345 36.1329 16.7885 35.8253 16.7885C34.7397 16.7885 33.7264 16.1414 33.3284 15.0809ZM54.1182 14.4697C52.6526 14.3079 51.6032 12.9958 51.766 11.5219C51.9469 10.0659 53.2678 9.02338 54.7334 9.20312C56.199 9.38287 57.2485 10.695 57.0675 12.151C56.9047 13.4991 55.7467 14.5057 54.4077 14.5057C54.3172 14.4877 54.2087 14.4877 54.1182 14.4697Z" fill="#34C5F3"/>
<path d="M51.5289 82.0892C51.3842 80.9029 52.2346 79.8424 53.4107 79.6986C54.6049 79.5548 55.6905 80.3816 55.8353 81.5859C55.98 82.7543 55.1296 83.8328 53.9354 83.9766C53.845 83.9945 53.7545 83.9945 53.6821 83.9945C52.5965 83.9766 51.6556 83.1857 51.5289 82.0892ZM37.8138 82.0353C36.692 81.6219 36.1311 80.3636 36.5653 79.2672C36.9815 78.1528 38.2299 77.5955 39.3518 78.009C40.4736 78.4224 41.0345 79.6806 40.6183 80.7771C40.2926 81.6399 39.4603 82.1791 38.5918 82.1791C38.3385 82.1791 38.0671 82.1432 37.8138 82.0353ZM66.0945 77.6854C65.4069 76.6968 65.6603 75.3667 66.6373 74.6836C67.6144 74.0186 68.9714 74.2522 69.659 75.2229C70.3285 76.2115 70.0933 77.5416 69.1162 78.2247C68.7362 78.4763 68.302 78.6021 67.8677 78.6021C67.1801 78.6201 66.5107 78.2966 66.0945 77.6854ZM24.4605 72.8862C23.6644 72.0054 23.7368 70.6393 24.6414 69.8484C25.528 69.0575 26.9032 69.1294 27.6993 70.0282C28.4954 70.9089 28.4231 72.275 27.5184 73.0659C27.1022 73.4254 26.5956 73.6052 26.089 73.6052C25.4738 73.6231 24.8767 73.3715 24.4605 72.8862ZM76.9327 67.0803C75.8833 66.5231 75.4671 65.2289 76.028 64.1684C76.589 63.1259 77.8917 62.7125 78.9412 63.2697C79.9906 63.8269 80.4068 65.1211 79.8639 66.1636C79.4659 66.9006 78.724 67.314 77.9279 67.314C77.6022 67.314 77.2584 67.2421 76.9327 67.0803ZM16.8973 58.6322C16.6078 57.4818 17.3134 56.3135 18.4714 56.0259C19.6294 55.7383 20.8055 56.4393 21.095 57.5897C21.3845 58.7401 20.6789 59.9084 19.5028 60.196C19.3218 60.232 19.159 60.2679 18.9962 60.2679C18.0191 60.2679 17.1325 59.6208 16.8973 58.6322ZM79.4116 50.5076C79.4116 50.4897 79.4116 50.4717 79.4116 50.4357C79.4116 50.4178 79.4116 50.3998 79.4116 50.3818C79.3935 49.1955 80.3706 48.2248 81.5648 48.2248C82.759 48.2069 83.736 49.1775 83.736 50.3638C83.736 50.3818 83.7179 50.3998 83.7179 50.4357C83.7179 50.4537 83.736 50.4717 83.736 50.5076C83.736 51.694 82.759 52.6646 81.5648 52.6646C80.3887 52.6646 79.4116 51.694 79.4116 50.5076ZM18.4533 45.1152C17.2953 44.8276 16.5716 43.6593 16.8611 42.5268C17.1506 41.3765 18.3086 40.6575 19.4666 40.9451C20.6246 41.2327 21.3303 42.401 21.0589 43.5514C20.8236 44.54 19.937 45.1871 18.96 45.1871C18.7971 45.1871 18.6162 45.1512 18.4533 45.1152ZM75.9738 36.757C75.4129 35.7144 75.8109 34.4023 76.8604 33.863C77.9098 33.3058 79.2307 33.7013 79.7916 34.7438C80.3525 35.7863 79.9544 37.0985 78.905 37.6557C78.5793 37.8354 78.2355 37.9073 77.8736 37.9073C77.1137 37.9073 76.3537 37.4939 75.9738 36.757ZM24.5691 31.2567C23.6644 30.4658 23.5739 29.1177 24.37 28.2369C25.1662 27.3382 26.5232 27.2483 27.4279 28.0392C28.3145 28.8301 28.405 30.1782 27.6088 31.0769C27.1927 31.5443 26.5775 31.7959 25.9804 31.7959C25.4738 31.7959 24.9671 31.6342 24.5691 31.2567ZM66.5469 26.2597C65.5698 25.5947 65.3165 24.2465 65.986 23.2579C66.6554 22.2873 68.0125 22.0357 68.9895 22.7007C69.9847 23.3658 70.238 24.7139 69.5504 25.6845C69.1343 26.2957 68.4467 26.6192 67.7591 26.6192C67.343 26.6372 66.9268 26.5114 66.5469 26.2597ZM36.4387 21.802C36.0225 20.6876 36.5834 19.4473 37.6871 19.0159C38.8089 18.6025 40.0574 19.1417 40.4917 20.2562C40.9078 21.3526 40.365 22.6108 39.2432 23.0422C38.9899 23.1321 38.7366 23.186 38.4652 23.186C37.5967 23.186 36.7824 22.6648 36.4387 21.802ZM53.3021 21.3167C52.1079 21.1729 51.2575 20.1124 51.4023 18.926C51.547 17.7397 52.6146 16.8949 53.8088 17.0387C55.003 17.1645 55.8534 18.243 55.7086 19.4293C55.582 20.5258 54.6592 21.3167 53.5555 21.3167C53.465 21.3346 53.3926 21.3346 53.3021 21.3167Z" fill="#34C5F3"/>
</g>
<defs>
<clipPath id="clip0_4100_183">
<rect width="101" height="101" fill="white" transform="translate(0 -0.000244141)"/>
</clipPath>
</defs>
</svg>
