<svg width="24" height="25" viewBox="0 0 24 25" fill="none" xmlns="http://www.w3.org/2000/svg">
<path d="M2.5 17.9805C3.46443 18.5137 10.4457 22.538 15.41 19.4364C20.3742 16.3347 20.1003 10.991 20.1003 8.54236C20.55 7.60026 21.5 7.12131 21.5 4.57126C20.5669 5.43326 19.6394 5.72656 18.7175 5.45116C17.8144 4.07415 16.5718 3.4651 14.9897 3.62403C12.6167 3.86243 11.7485 6.19061 12.004 9.20271C8.34495 11.0531 5.47575 7.86136 3.99709 5.45116C3.50304 7.34931 3.02665 9.62816 3.99709 12.1491C4.64405 13.8297 6.19925 15.2506 8.6627 16.4117C6.16615 17.7648 4.11191 18.2877 2.5 17.9805Z" stroke="#DADADA" stroke-width="2" stroke-linejoin="round"/>
</svg>
